HIERARCHY
ROOT hip
{
	OFFSET 0.000000 0.000000 0.000000 
	CHANNELS 6 Xposition Yposition Zposition Xrotation Zrotation Yrotation
	JOINT abdomen
	{
		OFFSET 0.000000 3.402643 0.000000 
		CHANNELS 3 Xrotation Zrotation Yrotation
		JOINT chest
		{
			OFFSET 0.000000 8.438565 -0.680529 
			CHANNELS 3 Xrotation Zrotation Yrotation
			JOINT neck
			{
				OFFSET 0.000000 10.207942 -0.272212 
				CHANNELS 3 Xrotation Zrotation Yrotation
				JOINT head
				{
					OFFSET 0.000000 3.130431 0.000000 
					CHANNELS 3 Xrotation Zrotation Yrotation
					End Site
					{
						OFFSET 0.000000 3.130435 0.000000 
					}
				}
			}
			JOINT lCollar
			{
				OFFSET 3.470700 6.669187 -0.816635 
				CHANNELS 3 Yrotation Zrotation Xrotation
				JOINT lShldr
				{
					OFFSET 3.198488 0.000000 0.000000 
					CHANNELS 3 Zrotation Yrotation Xrotation
					JOINT lForeArm
					{
						OFFSET 10.139888 0.000000 0.000000 
						CHANNELS 3 Yrotation Zrotation Xrotation
						JOINT lHand
						{
							OFFSET 8.370511 0.000000 0.000000 
							CHANNELS 3 Zrotation Yrotation Xrotation
							End Site
							{
								OFFSET 4.083176 0.000000 0.000000 
							}
						}
					}
				}
			}
			JOINT rCollar
			{
				OFFSET -3.470700 6.669187 -0.816635 
				CHANNELS 3 Yrotation Zrotation Xrotation
				JOINT rShldr
				{
					OFFSET -3.198488 0.000000 0.000000 
					CHANNELS 3 Zrotation Yrotation Xrotation
					JOINT rForeArm
					{
						OFFSET -10.139888 0.000000 0.000000 
						CHANNELS 3 Yrotation Zrotation Xrotation
						JOINT rHand
						{
							OFFSET -8.370511 0.000000 0.000000 
							CHANNELS 3 Zrotation Yrotation Xrotation
							End Site
							{
								OFFSET -4.083176 0.000000 0.000000 
							}
						}
					}
				}
			}
		}
	}
	JOINT lThigh
	{
		OFFSET 5.308129 -1.633274 1.361059 
		CHANNELS 3 Xrotation Zrotation Yrotation
		JOINT lShin
		{
			OFFSET -2.041588 -20.007561 0.000000 
			CHANNELS 3 Xrotation Zrotation Yrotation
			JOINT lFoot
			{
				OFFSET 0.000000 -19.190928 -1.224953 
				CHANNELS 3 Xrotation Yrotation Zrotation
				End Site
				{
					OFFSET 0.000000 -2.449906 4.627600 
				}
			}
		}
	}
	JOINT rThigh
	{
		OFFSET -5.308129 -1.633274 1.361059 
		CHANNELS 3 Xrotation Zrotation Yrotation
		JOINT rShin
		{
			OFFSET 2.041588 -20.007561 0.000000 
			CHANNELS 3 Xrotation Zrotation Yrotation
			JOINT rFoot
			{
				OFFSET 0.000000 -19.190928 -1.224953 
				CHANNELS 3 Xrotation Yrotation Zrotation
				End Site
				{
					OFFSET 0.000000 -2.449906 4.627600 
				}
			}
		}
	}
}
MOTION
Frames: 16
Frame Time: 0.011111
35.622040 52.154175 27.593445 1.200631 8.023762 -102.776810 18.533522 -9.581484 3.058155 -19.945320 10.026454 2.054799 -17.345263 4.311053 0.641469 -8.512856 7.690888 1.826366 -7.144085 -8.915731 -1.117720 -57.588058 -15.263468 35.896118 -64.376083 9.457761 14.396789 8.524705 12.647240 -23.831434 11.057579 9.042061 -2.265095 56.491642 6.533715 7.878836 63.504177 -9.452963 13.999647 -8.534408 -12.637552 48.509624 -20.094563 3.437414 -9.303052 42.016064 -4.475054 -6.346459 -31.529245 12.112278 4.868653 -20.907429 -13.768809 -13.862670 62.291428 2.461063 8.313709 0.401890 -10.361724 3.170717 
35.604282 52.174030 27.576729 1.390126 8.131458 -102.679565 18.350878 -9.525231 3.222061 -19.895494 10.083234 2.092719 -17.798765 4.366574 0.583313 -6.750074 7.163325 1.976084 -7.144085 -8.915731 -1.117720 -57.448189 -15.305872 36.147720 -64.321381 9.453392 14.362466 8.524705 12.647240 -23.538464 11.057579 9.042061 -2.265095 56.229694 6.647607 8.169994 63.760620 -9.459190 14.122363 -8.534408 -12.637552 48.724464 -20.216356 3.671494 -9.316096 42.025116 -4.488210 -6.342348 -31.565132 11.969028 4.814401 -20.795063 -13.568227 -13.958796 62.164585 2.470740 8.299701 0.331685 -10.336863 3.173052 
35.592785 52.185875 27.577423 1.492362 8.170748 -102.584900 18.274704 -9.503336 3.376584 -19.846174 10.032536 2.130420 -18.403418 4.508121 0.463866 -4.737567 6.368353 2.060937 -7.144085 -8.915731 -1.117720 -57.453476 -15.414737 35.840954 -64.163040 9.456717 14.297567 8.524705 12.647240 -23.938854 11.057579 9.042061 -2.265095 56.161610 6.873814 8.178740 63.940632 -9.458097 14.198326 -8.534408 -12.637552 48.734234 -20.232391 3.778944 -9.367203 41.985271 -4.494661 -6.341279 -31.623451 12.010146 4.853529 -20.729580 -13.551833 -14.121010 62.125816 2.489146 8.287967 0.363623 -10.264929 3.183128 
35.586166 52.198414 27.566275 1.456369 8.186076 -102.563194 18.178240 -9.693213 3.486335 -19.776659 10.059123 2.181510 -18.952814 4.725947 0.304718 -2.662746 5.299708 2.077197 -7.144085 -8.915731 -1.117720 -57.515480 -15.530346 35.410076 -63.949764 9.454338 14.198688 8.524705 12.647240 -24.446667 11.057579 9.042061 -2.265095 56.179806 7.104797 8.147311 64.143211 -9.460671 14.296309 -8.534408 -12.637552 48.685406 -20.224682 3.779032 -9.280073 41.975780 -4.494641 -6.330751 -31.615822 12.002346 4.846254 -20.729391 -13.658892 -14.225614 62.096344 2.480503 8.290323 0.459985 -10.219652 3.166309 
35.584774 52.191097 27.596581 1.472514 8.138610 -102.531715 18.181335 -9.654568 3.611734 -19.776960 10.000372 2.220331 -19.369883 4.661711 0.209877 -0.610392 4.558078 2.069799 -7.144085 -8.915731 -1.117720 -57.663044 -15.577438 35.083527 -63.768307 9.451143 14.112480 8.524705 12.647240 -24.583387 11.057579 9.042061 -2.265095 56.088535 7.128902 8.421713 64.506828 -9.465651 14.467357 -8.534408 -12.637552 48.968613 -20.175142 3.661820 -9.501476 41.966248 -4.487346 -6.336949 -31.613852 12.204001 4.926905 -20.700836 -13.786665 -14.349273 62.076275 2.490389 8.304060 0.534386 -10.210212 3.185075 
35.585468 52.176121 27.657887 1.608347 8.094471 -102.507553 18.230511 -9.354502 3.813088 -19.817568 9.806472 2.242170 -19.763735 4.414611 0.161246 1.480944 4.172477 2.021893 -7.144085 -8.915731 -1.117720 -57.722279 -15.564821 34.923008 -63.704163 9.450081 14.087833 8.524705 12.647240 -24.456432 11.057579 9.042061 -2.265095 56.029366 7.079215 8.714477 64.942497 -9.461591 14.668193 -8.534408 -12.637552 49.300644 -20.178127 3.573872 -9.929946 42.005634 -4.478348 -6.356453 -31.661049 12.463539 5.070263 -20.661917 -13.835521 -14.511600 62.057076 2.490336 8.292884 0.716030 -10.167466 3.205662 
35.583729 52.182045 27.671471 1.732709 8.107009 -102.443985 18.189377 -9.211955 3.946770 -19.818243 9.669690 2.261227 -20.027485 4.350579 0.027647 3.391897 3.617824 1.843246 -7.144085 -8.915731 -1.117720 -57.547573 -15.504645 35.066135 -63.725639 9.450027 14.089549 8.524705 12.647240 -24.182993 11.057579 9.042061 -2.265095 56.121731 7.104823 8.906414 65.316528 -9.461430 14.851104 -8.534408 -12.637552 49.349464 -20.196451 3.701063 -9.925086 42.024895 -4.494766 -6.335037 -31.680189 12.312014 5.006566 -20.621325 -13.775399 -14.607839 62.027454 2.489241 8.299582 0.852190 -10.141335 3.236629 
35.580940 52.191795 27.657190 1.777767 8.110147 -102.332375 18.091087 -9.175940 3.891294 -19.768847 9.648313 2.249813 -20.231430 4.383947 -0.089564 5.329637 2.813967 1.712895 -7.144085 -8.915731 -1.117720 -57.454247 -15.483705 35.036854 -63.661480 9.448888 14.063322 8.524705 12.647240 -24.046276 11.057579 9.042061 -2.265095 56.107338 7.132100 9.327531 65.665619 -9.449575 15.005721 -8.534408 -12.637552 49.300644 -20.249636 3.857035 -9.600283 42.035069 -4.494558 -6.326134 -31.683666 12.013089 4.876068 -20.573456 -13.707935 -14.706193 62.008030 2.500152 8.294660 0.942567 -10.138410 3.233834 
35.579899 52.195274 27.648132 1.750210 8.115416 -102.231613 17.996969 -9.197025 3.787722 -19.709297 9.675510 2.220726 -20.568436 4.395193 -0.158064 7.453334 2.034041 1.645102 -7.144085 -8.915731 -1.117720 -57.522930 -15.472192 34.709572 -63.533230 9.445615 14.002817 8.524705 12.647240 -24.134169 11.057579 9.042061 -2.265095 55.976814 7.159459 9.860641 66.006378 -9.442152 15.167952 -8.534408 -12.637552 49.368999 -20.242979 3.906152 -9.401653 42.005413 -4.484861 -6.349132 -31.664343 11.913734 4.822199 -20.536249 -13.729545 -14.803897 62.017796 2.500173 8.295442 0.981194 -10.165442 3.237363 
35.580940 52.197716 27.634548 1.703322 8.120392 -102.244637 17.907742 -9.310271 3.826009 -19.640276 9.623902 2.251426 -20.743031 4.426546 -0.275457 9.167469 1.466039 1.453440 -7.144085 -8.915731 -1.117720 -57.399986 -15.457577 34.640774 -63.469151 9.443485 13.968542 8.524705 12.647240 -24.143932 11.057579 9.042061 -2.265095 55.971836 7.188335 10.201220 66.346313 -9.431104 15.329385 -8.534408 -12.637552 49.554546 -20.221968 3.915544 -9.296519 41.955528 -4.497898 -6.339882 -31.565842 11.905283 4.778429 -20.544760 -13.708739 -14.746881 62.037537 2.490306 8.291330 0.902843 -10.288077 3.227295 
35.585815 52.194931 27.626886 1.708019 8.111406 -102.263985 17.810488 -9.357063 3.977316 -19.581671 9.484590 2.299255 -20.675888 4.441460 -0.427153 10.501551 1.006851 1.157535 -7.144085 -8.915731 -1.117720 -57.231812 -15.496651 34.672535 -63.330040 9.439399 13.905804 8.524705 12.647240 -24.222059 11.057579 9.042061 -2.265095 56.153175 7.258796 10.312854 66.632973 -9.419995 15.468323 -8.534408 -12.637552 49.661968 -20.184059 4.003551 -9.162484 41.916019 -4.504341 -6.329132 -31.545229 11.717346 4.670426 -20.570951 -13.607672 -14.590211 62.057072 2.490328 8.292878 0.777170 -10.473416 3.231255 
35.588253 52.196323 27.627581 1.751459 8.114485 -102.162445 17.724434 -9.268714 4.029641 -19.503153 9.374033 2.311173 -20.660961 4.290320 -0.495137 11.905833 0.619329 0.933017 -7.144085 -8.915731 -1.117720 -57.265453 -15.608874 34.439079 -63.106693 9.435452 13.807956 8.524705 12.647240 -24.446667 11.057579 9.042061 -2.265095 56.319447 7.415950 10.353738 66.845757 -9.411656 15.569329 -8.534408 -12.637552 49.583843 -20.193491 4.111123 -9.048336 41.887218 -4.504292 -6.307224 -31.591106 11.331455 4.515830 -20.563396 -13.492892 -14.497181 62.076611 2.490370 8.294437 0.692276 -10.625203 3.219155 
35.587906 52.206421 27.625843 1.780696 8.106458 -102.075607 17.694277 -9.164731 3.958407 -19.384459 9.369713 2.292785 -20.795887 4.091245 -0.472446 13.418338 0.239883 0.849187 -7.144085 -8.915731 -1.117720 -57.423195 -15.726006 34.062168 -62.904675 9.430558 13.710465 8.524705 12.647240 -24.612684 11.057579 9.042061 -2.265095 56.309826 7.582766 10.562413 67.026802 -9.404498 15.656002 -8.534408 -12.637552 49.535015 -20.193205 4.169573 -8.948166 41.887222 -4.504282 -6.307221 -31.537521 11.066560 4.382043 -20.552040 -13.403291 -14.390570 62.096344 2.480505 8.290322 0.655441 -10.640285 3.222322 
35.592434 52.209213 27.628628 1.795441 8.097716 -102.042824 17.672689 -9.034100 3.903246 -19.295626 9.337258 2.277428 -20.879307 3.980172 -0.409394 14.804009 -0.188270 0.858450 -7.144085 -8.915731 -1.117720 -57.583378 -15.823790 33.663120 -62.702347 9.425152 13.623029 8.524705 12.647240 -24.837296 11.057579 9.042061 -2.265095 56.270977 7.695046 10.757515 67.186729 -9.397921 15.730923 -8.534408 -12.637552 49.593613 -20.213249 4.189198 -8.881438 41.906681 -4.494697 -6.334513 -31.415791 11.101842 4.355841 -20.560717 -13.333841 -14.300197 62.125317 2.480574 8.302274 0.655596 -10.631143 3.225697 
35.602882 52.205029 27.646044 1.750922 8.121776 -102.004494 17.618773 -8.949654 3.842372 -19.217529 9.178319 2.258630 -20.759172 4.036564 -0.367718 15.613741 -0.649388 0.908952 -7.144085 -8.915731 -1.117720 -57.626362 -15.937154 33.243332 -62.446255 9.414948 13.502919 8.524705 12.647240 -25.276745 11.057579 9.042061 -2.265095 56.416519 7.858648 10.908081 67.324005 -9.389111 15.794891 -8.534408 -12.637552 49.788921 -20.315960 4.130453 -8.792308 41.936493 -4.494543 -6.327324 -31.309795 11.220658 4.373054 -20.661280 -13.395625 -14.298290 62.183926 2.480669 8.306931 0.603085 -10.689261 3.198444 
35.617863 52.203636 27.666595 1.656689 8.170175 -101.980309 17.578390 -8.903623 3.706763 -19.129538 9.029131 2.221557 -20.518942 4.096259 -0.286203 15.691345 -1.107604 1.028475 -7.144085 -8.915731 -1.117720 -57.656094 -16.078466 32.824219 -62.243671 9.406332 13.406469 8.524705 12.647240 -25.618542 11.057579 9.042061 -2.265095 56.521046 8.035111 11.335433 67.471581 -9.378463 15.861691 -8.534408 -12.637552 50.296734 -20.401075 4.042305 -8.670884 41.956505 -4.478436 -6.352262 -31.267700 11.126845 4.308135 -20.807739 -13.512813 -14.296159 62.252323 2.479515 8.311644 0.522522 -10.781970 3.230378 
